<?xml version="1.0" standalone="no"?><!DOCTYPE svg PUBLIC "-//W3C//DTD SVG 1.1//EN" "http://www.w3.org/Graphics/SVG/1.1/DTD/svg11.dtd"><svg class="icon" width="200px" height="200.00px" viewBox="0 0 1024 1024" version="1.1" xmlns="http://www.w3.org/2000/svg"><path fill="#1296db" d="M864 96H160c-35.346 0-64 28.654-64 64v704c0 35.347 28.654 64 64 64h704c35.346 0 64-28.653 64-64V160c0-35.346-28.654-64-64-64z m32 768c0 17.673-14.327 32-32 32H160c-17.673 0-32-14.327-32-32V160c0-17.673 14.327-32 32-32h704c17.673 0 32 14.327 32 32v704zM760.941 220.687c6.248-6.249 6.248-16.379 0-22.627-6.249-6.249-16.379-6.249-22.628 0l-45.255 45.254c-6.248 6.249-6.248 16.379 0 22.627 0.169 0.169 0.352 0.315 0.525 0.475l-0.563 0.563c46.327 46.327 74.981 110.328 74.981 181.021 0 141.371-114.591 255.978-255.957 256.002l-0.046-0.002-0.046 0.002c-65.171-0.011-124.641-24.389-169.827-64.501l22.664-22.664c39.368 34.354 90.856 55.17 147.209 55.17 123.715 0 224.007-100.292 224.007-224.007S635.713 223.994 511.998 223.994 287.992 324.285 287.992 448c0 55.844 20.439 106.911 54.239 146.14l-34.173 34.174c-6.249 6.249-6.249 16.379 0 22.628 0.168 0.169 0.351 0.314 0.525 0.475l-0.23 0.23c48.599 48.599 114.488 79.897 187.646 83.904V800H336c-8.836 0-16 7.163-16 16s7.164 16 16 16h352c8.837 0 16-7.163 16-16s-7.163-16-16-16H528v-64.449C679.614 727.247 800 601.688 800 448c0-74.026-27.939-141.52-73.835-192.538l34.776-34.775zM320.004 448c0-106.036 85.959-191.996 191.996-191.996 106.036 0 191.996 85.96 191.996 191.996S618.036 639.996 512 639.996c-52.262 0-99.638-20.891-134.257-54.766a16.073 16.073 0 0 0-1.802-2.172 15.949 15.949 0 0 0-2.088-1.74C340.517 546.783 320.004 499.79 320.004 448z" /></svg>