<?xml version="1.0" standalone="no"?><!DOCTYPE svg PUBLIC "-//W3C//DTD SVG 1.1//EN" "http://www.w3.org/Graphics/SVG/1.1/DTD/svg11.dtd"><svg class="icon" width="200px" height="200.00px" viewBox="0 0 1024 1024" version="1.1" xmlns="http://www.w3.org/2000/svg"><path fill="#1296db" d="M640 640c-26.51 0-48 21.49-48 48s21.49 48 48 48 48-21.49 48-48-21.49-48-48-48z m0 63.998c-8.836 0-15.998-7.162-15.998-15.998s7.162-15.998 15.998-15.998 15.998 7.162 15.998 15.998-7.162 15.998-15.998 15.998zM864 96H160c-35.346 0-64 28.654-64 64v704c0 35.347 28.654 64 64 64h704c35.346 0 64-28.653 64-64V160c0-35.346-28.654-64-64-64z m32 768c0 17.673-14.327 32-32 32H160c-17.673 0-32-14.327-32-32V160c0-17.673 14.327-32 32-32h704c17.673 0 32 14.327 32 32v704z m-66.144-96.441L608 364.337V224h16c8.837 0 16-7.164 16-16s-7.163-16-16-16H400c-8.836 0-16 7.164-16 16s7.164 16 16 16h16v140.337L194.144 767.559a15.926 15.926 0 0 0-1.835 11.055 48.39 48.39 0 0 0-0.309 5.387c0 26.51 21.49 48 48 48h544c26.51 0 48-21.49 48-48 0-1.822-0.111-3.618-0.309-5.388a15.923 15.923 0 0 0-1.835-11.054z m-384-391.118a15.902 15.902 0 0 0 2.128-8.139c0.002-0.102 0.015-0.2 0.015-0.302V224h128v144c0 0.104 0.014 0.204 0.016 0.307a15.896 15.896 0 0 0 2.128 8.134L599.909 416H424.091l21.765-39.559zM784 799.998V800H240v-0.002c-8.836 0-15.999-7.162-15.999-15.998 0-1.184 0.129-2.914 0.374-5.019L406.484 448h211.032l182.109 330.98c0.243 2.104 0.373 3.836 0.373 5.02 0 8.836-7.162 15.998-15.998 15.998zM544 512c-17.673 0-32 14.327-32 32s14.327 32 32 32 32-14.327 32-32-14.327-32-32-32z m-144 96c-26.51 0-48 21.49-48 48s21.49 48 48 48 48-21.49 48-48-21.49-48-48-48z m0 63.998c-8.836 0-15.999-7.162-15.999-15.998s7.163-15.998 15.999-15.998 15.999 7.162 15.999 15.998-7.163 15.998-15.999 15.998z" /></svg>