<?xml version="1.0" standalone="no"?><!DOCTYPE svg PUBLIC "-//W3C//DTD SVG 1.1//EN" "http://www.w3.org/Graphics/SVG/1.1/DTD/svg11.dtd"><svg class="icon" width="200px" height="200.00px" viewBox="0 0 1024 1024" version="1.1" xmlns="http://www.w3.org/2000/svg"><path fill="#1296db" d="M240 512h256c8.836 0 16-7.164 16-16s-7.164-16-16-16H240c-8.836 0-16 7.164-16 16s7.164 16 16 16z m384 96H240c-8.836 0-16 7.163-16 16s7.164 16 16 16h384c8.837 0 16-7.163 16-16s-7.163-16-16-16z m272-416h-96v-64c0-17.673-14.327-32-32-32H160c-35.346 0-64 28.654-64 64v704c0 35.347 28.654 64 64 64h736c17.673 0 32-14.327 32-32V224c0-17.673-14.327-32-32-32z m-736-64h592c8.837 0 16 7.164 16 16v48H160c-17.673 0-32-14.327-32-32s14.327-32 32-32z m736.01 752.01c0 8.837-7.164 16-16 16H159.99c-17.673 0-32-14.327-32-32V223.99h0.01v-8.574a63.681 63.681 0 0 0 32 8.583h640v-0.01h80.01c8.836 0 16 7.164 16 16V880.01zM784 352H240c-8.836 0-16 7.164-16 16s7.164 16 16 16h544c8.837 0 16-7.164 16-16s-7.163-16-16-16zM496 736H240c-8.836 0-16 7.163-16 16s7.164 16 16 16h256c8.836 0 16-7.163 16-16s-7.164-16-16-16z" /></svg>