<?xml version="1.0" standalone="no"?><!DOCTYPE svg PUBLIC "-//W3C//DTD SVG 1.1//EN" "http://www.w3.org/Graphics/SVG/1.1/DTD/svg11.dtd"><svg class="icon" width="200px" height="200.00px" viewBox="0 0 1024 1024" version="1.1" xmlns="http://www.w3.org/2000/svg"><path fill="#1296db" d="M219.118 598.49c-6.248-6.248-16.379-6.248-22.627 0s-6.249 16.379 0 22.628L354.882 779.51c6.248 6.248 16.379 6.248 22.627 0s6.249-16.379 0-22.628L219.118 598.49zM832 640c0-95.824-70.203-175.234-161.98-189.647a47.56 47.56 0 0 0-2.657-6.951l59.599-59.598c18.744-18.745 18.744-49.137 0-67.882l-67.883-67.882c-18.745-18.745-49.137-18.745-67.882 0L297.04 542.196c-18.745 18.745-18.745 49.137 0 67.882l67.882 67.883c18.745 18.745 49.137 18.745 67.882 0l170.598-170.598A47.816 47.816 0 0 0 624 512c19.951 0 37.056-12.175 44.3-29.499C743.164 495.863 799.993 561.295 799.993 640c0 88.362-71.631 159.993-159.993 159.993V800H464c-8.836 0-16 7.163-16 16s7.164 16 16 16h352c8.837 0 16-7.163 16-16s-7.163-16-16-16h-69.852C797.891 765.604 832 706.789 832 640zM624 479.999c-8.836 0-15.998-7.163-15.998-15.999s7.162-15.999 15.998-15.999 15.998 7.163 15.998 15.999-7.162 15.999-15.998 15.999z m20.786-59.276A47.796 47.796 0 0 0 624 416c-26.51 0-48 21.49-48 48a47.804 47.804 0 0 0 4.723 20.787l-164.89 164.889c-9.373 9.373-24.569 9.373-33.941 0l-56.569-56.568c-9.373-9.372-9.373-24.568 0-33.941l282.842-282.842c9.373-9.373 24.569-9.373 33.941 0l56.568 56.569c9.373 9.372 9.373 24.568 0 33.941l-53.888 53.888zM864 96H160c-35.346 0-64 28.654-64 64v704c0 35.347 28.654 64 64 64h704c35.346 0 64-28.653 64-64V160c0-35.346-28.654-64-64-64z m32 768c0 17.673-14.327 32-32 32H160c-17.673 0-32-14.327-32-32V160c0-17.673 14.327-32 32-32h704c17.673 0 32 14.327 32 32v704zM756.627 287.255c6.249 6.249 16.38 6.249 22.628 0s6.248-16.379 0-22.627l-67.882-67.882c-6.249-6.248-16.38-6.248-22.628 0-6.248 6.249-6.248 16.379 0 22.627l67.882 67.882z" /></svg>