<?xml version="1.0" standalone="no"?><!DOCTYPE svg PUBLIC "-//W3C//DTD SVG 1.1//EN" "http://www.w3.org/Graphics/SVG/1.1/DTD/svg11.dtd"><svg class="icon" width="200px" height="200.00px" viewBox="0 0 1024 1024" version="1.1" xmlns="http://www.w3.org/2000/svg"><path fill="#1296db" d="M272 608h352c8.837 0 16-7.163 16-16s-7.163-16-16-16H272c-8.836 0-16 7.163-16 16s7.164 16 16 16z m0-320h224c8.836 0 16-7.164 16-16s-7.164-16-16-16H272c-8.836 0-16 7.164-16 16s7.164 16 16 16z m480 128H272c-8.836 0-16 7.164-16 16s7.164 16 16 16h480c8.837 0 16-7.164 16-16s-7.163-16-16-16zM864 96H160c-35.346 0-64 28.654-64 64v704c0 35.347 28.654 64 64 64h704c35.346 0 64-28.653 64-64V160c0-35.346-28.654-64-64-64z m32.01 768.01c0 17.673-14.327 32-32 32H159.99c-17.673 0-32-14.327-32-32V159.99c0-17.673 14.327-32 32-32h704.02c17.673 0 32 14.327 32 32v704.02zM752 736H272c-8.836 0-16 7.163-16 16s7.164 16 16 16h480c8.837 0 16-7.163 16-16s-7.163-16-16-16z" /></svg>