<?xml version="1.0" standalone="no"?><!DOCTYPE svg PUBLIC "-//W3C//DTD SVG 1.1//EN" "http://www.w3.org/Graphics/SVG/1.1/DTD/svg11.dtd"><svg class="icon" width="200px" height="200.00px" viewBox="0 0 1024 1024" version="1.1" xmlns="http://www.w3.org/2000/svg"><path fill="#1296db" d="M816 688H592c-8.837 0-16 7.163-16 16s7.163 16 16 16h224c8.837 0 16-7.163 16-16s-7.163-16-16-16z m-88-88c0-13.255-10.745-24-24-24s-24 10.745-24 24 10.745 24 24 24 24-10.745 24-24z m-300.49-3.51c-6.249-6.248-16.379-6.248-22.627 0L320 681.372l-84.882-84.882c-6.248-6.248-16.379-6.248-22.627 0-6.248 6.248-6.249 16.379 0 22.628L297.372 704l-84.882 84.882c-6.249 6.249-6.249 16.38 0 22.628 6.249 6.248 16.379 6.248 22.627 0l84.882-84.882 84.882 84.882c6.248 6.248 16.379 6.248 22.627 0s6.249-16.379 0-22.628L342.628 704l84.882-84.882c6.248-6.249 6.248-16.38 0-22.628zM432 304h-96v-96c0-8.836-7.164-16-16-16s-16 7.164-16 16v96h-96c-8.836 0-16 7.164-16 16s7.164 16 16 16h96v96c0 8.836 7.164 16 16 16s16-7.164 16-16v-96h96c8.836 0 16-7.164 16-16s-7.164-16-16-16z m384 80H592c-8.837 0-16 7.164-16 16s7.163 16 16 16h224c8.837 0 16-7.164 16-16s-7.163-16-16-16z m0-160H592c-8.837 0-16 7.164-16 16s7.163 16 16 16h224c8.837 0 16-7.164 16-16s-7.163-16-16-16z m48-128H160c-35.346 0-64 28.654-64 64v704c0 35.347 28.654 64 64 64h704c35.346 0 64-28.653 64-64V160c0-35.346-28.654-64-64-64z m32 768c0 17.673-14.327 32-32 32H160c-17.673 0-32-14.327-32-32V160c0-17.673 14.327-32 32-32h704c17.673 0 32 14.327 32 32v704z m-192-80c-13.255 0-24 10.745-24 24s10.745 24 24 24 24-10.745 24-24-10.745-24-24-24z" /></svg>