<?xml version="1.0" standalone="no"?><!DOCTYPE svg PUBLIC "-//W3C//DTD SVG 1.1//EN" "http://www.w3.org/Graphics/SVG/1.1/DTD/svg11.dtd"><svg class="icon" width="200px" height="200.00px" viewBox="0 0 1024 1024" version="1.1" xmlns="http://www.w3.org/2000/svg"><path fill="#1296db" d="M576 224H320c-17.673 0-32 14.327-32 32v528c0 8.837 7.164 16 16 16a15.94 15.94 0 0 0 11.456-4.843c0.048-0.046 0.1-0.085 0.147-0.133L448 662.627l132.396 132.397c0.048 0.048 0.101 0.088 0.149 0.135A15.944 15.944 0 0 0 591.999 800c8.837 0 16-7.163 16-16V256c0.001-17.673-14.326-32-31.999-32z m0 521.373L461.603 630.976c-3.708-3.708-8.783-5.197-13.603-4.504-4.82-0.693-9.895 0.796-13.603 4.504L320 745.373V272c0-8.836 7.164-16 16-16h224c8.837 0 16 7.164 16 16v473.373zM928 384c0-8.836-7.163-16-16-16l-0.135 0.002C850.07 367.929 799.997 317.813 799.997 256c0-61.857 50.146-112.003 112.003-112.003V144c8.837 0 16-7.164 16-16s-7.163-16-16-16H240c-79.529 0-144 64.471-144 144 0 55.73 31.662 104.062 77.977 128C127.662 407.938 96 456.27 96 512s31.662 104.063 77.977 128C127.662 663.938 96 712.27 96 768c0 79.529 64.471 144 144 144h672c8.837 0 16-7.163 16-16s-7.163-16-16-16v0.003c-61.857 0-112.003-50.146-112.003-112.003S850.143 655.997 912 655.997V656c8.837 0 16-7.163 16-16s-7.163-16-16-16l-0.116 0.002C850.08 623.938 799.997 573.818 799.997 512c0-61.857 50.146-112.003 112.003-112.003V400c8.837 0 16-7.164 16-16z m-106.502 16C788.869 426.399 768 466.759 768 512c0 45.24 20.869 85.601 53.498 112H640v32h181.498C788.869 682.399 768 722.76 768 768s20.869 85.601 53.498 112H240v0.003c-61.857 0-112.003-50.146-112.003-112.003S178.143 655.997 240 655.997V656h16v-32h-16l-0.116 0.002C178.08 623.938 127.997 573.818 127.997 512c0-61.857 50.146-112.003 112.003-112.003V400h16v-32h-16l-0.135 0.002C178.07 367.929 127.997 317.813 127.997 256c0-61.857 50.146-112.003 112.003-112.003V144h581.498C788.869 170.399 768 210.759 768 256s20.869 85.601 53.498 112H640v32h181.498z" /></svg>