<?xml version="1.0" standalone="no"?><!DOCTYPE svg PUBLIC "-//W3C//DTD SVG 1.1//EN" "http://www.w3.org/Graphics/SVG/1.1/DTD/svg11.dtd"><svg class="icon" width="200px" height="200.00px" viewBox="0 0 1024 1024" version="1.1" xmlns="http://www.w3.org/2000/svg"><path fill="#1296db" d="M400 384H208c-8.836 0-16 7.164-16 16s7.164 16 16 16h192c8.836 0 16-7.164 16-16s-7.164-16-16-16z m0 320H208c-8.836 0-16 7.163-16 16s7.164 16 16 16h192c8.836 0 16-7.163 16-16s-7.164-16-16-16z m112-512c-8.836 0-16 7.164-16 16v608c0 8.837 7.164 16 16 16 8.837 0 16-7.163 16-16V208c0-8.836-7.163-16-16-16zM400 608H208c-8.836 0-16 7.163-16 16s7.164 16 16 16h192c8.836 0 16-7.163 16-16s-7.164-16-16-16z m0-320H208c-8.836 0-16 7.164-16 16s7.164 16 16 16h192c8.836 0 16-7.164 16-16s-7.164-16-16-16z m416 96H624c-8.837 0-16 7.164-16 16s7.163 16 16 16h192c8.837 0 16-7.164 16-16s-7.163-16-16-16z m0-96H624c-8.837 0-16 7.164-16 16s7.163 16 16 16h192c8.837 0 16-7.164 16-16s-7.163-16-16-16z m48-192H160c-35.346 0-64 28.654-64 64v704c0 35.347 28.654 64 64 64h704c35.346 0 64-28.653 64-64V160c0-35.346-28.654-64-64-64z m32 768c0 17.673-14.327 32-32 32H160c-17.673 0-32-14.327-32-32V160c0-17.673 14.327-32 32-32h704c17.673 0 32 14.327 32 32v704z m-80-256H624c-8.837 0-16 7.163-16 16s7.163 16 16 16h192c8.837 0 16-7.163 16-16s-7.163-16-16-16z m0 96H624c-8.837 0-16 7.163-16 16s7.163 16 16 16h192c8.837 0 16-7.163 16-16s-7.163-16-16-16z"  /></svg>