<?xml version="1.0" standalone="no"?><!DOCTYPE svg PUBLIC "-//W3C//DTD SVG 1.1//EN" "http://www.w3.org/Graphics/SVG/1.1/DTD/svg11.dtd"><svg class="icon" width="200px" height="200.00px" viewBox="0 0 1024 1024" version="1.1" xmlns="http://www.w3.org/2000/svg"><path fill="#1296db" d="M368 672h288c8.837 0 16-7.163 16-16s-7.163-16-16-16H368c-8.836 0-16 7.163-16 16s7.164 16 16 16zM864 96H288c-35.346 0-64 28.654-64 64v352h-32c-53.02 0-96 42.98-96 96v224c0 53.02 42.98 96 96 96h672c35.346 0 64-28.653 64-64V160c0-35.346-28.654-64-64-64zM224 896h-32c-35.346 0-64-28.653-64-64V608c0-35.346 28.654-64 64-64h32v352z m672-32c0 17.673-14.327 32-32 32H256V160c0-17.673 14.327-32 32-32h576c17.673 0 32 14.327 32 32v704zM768 224H384c-17.673 0-32 14.327-32 32v128c0 17.673 14.327 32 32 32h384c17.673 0 32-14.327 32-32V256c0-17.673-14.327-32-32-32z m0 144c0 8.836-7.163 16-16 16H400c-8.836 0-16-7.164-16-16v-96c0-8.836 7.164-16 16-16h352c8.837 0 16 7.164 16 16v96z m16 144H368c-8.836 0-16 7.163-16 16s7.164 16 16 16h416c8.837 0 16-7.163 16-16s-7.163-16-16-16z m0 256H368c-8.836 0-16 7.163-16 16s7.164 16 16 16h416c8.837 0 16-7.163 16-16s-7.163-16-16-16z" /></svg>